<svg xmlns="http://www.w3.org/2000/svg" viewBox="0 0 52.893 77.178"><defs><style>.b8393eca-2c91-4362-9ddd-32e580cc5e7b{fill:#b95d37;}.ae997c70-27e8-456d-97d5-de507de1cf29{fill:#f7cce8;}.b236b9a1-61bc-4587-9bab-10078e50da29{fill:#f7e4f1;}.e452ab6b-62c0-4c5d-8140-8192c206af99,.fbe34c79-fb6b-4d03-9c6c-c39a5872f7d7{fill:none;stroke:#384651;stroke-linecap:round;}.fbe34c79-fb6b-4d03-9c6c-c39a5872f7d7{stroke-miterlimit:10;}.e452ab6b-62c0-4c5d-8140-8192c206af99{stroke-linejoin:round;}.bb976cc2-1a9e-437c-a998-88cbd5175ee8{fill:#a5c4bc;}.a2a1d4dc-6a9c-4347-895e-f226386ef320{fill:#e2e0e0;}.b8fdec86-4044-46ee-9395-4b48de36bccd{fill:#cecccc;}</style></defs><g id="eab4c06a-1c5c-40aa-b665-73b396227b09" data-name="Layer 2"><g id="ac76c26e-36ae-4740-bc23-77a0869dd5e0" data-name="Layer 1"><path class="b8393eca-2c91-4362-9ddd-32e580cc5e7b" d="M34.586,67.021a5.009,5.009,0,0,0,.5.206,1.931,1.931,0,0,1,.417.146,5.854,5.854,0,0,1,.907.492,10.481,10.481,0,0,1,1.786,1.5,14.933,14.933,0,0,1,1.59,2,21.01,21.01,0,0,1,1.342,2.349l.031.061a1.307,1.307,0,0,0,2.476-.548,24.451,24.451,0,0,0-.082-3.108,19.9,19.9,0,0,0-.571-3.209,16.94,16.94,0,0,0-1.241-3.251,13.2,13.2,0,0,0-.966-1.616,10.144,10.144,0,0,0-.619-.809c-.122-.139-.228-.27-.377-.417-.074-.074-.131-.138-.222-.22a2.994,2.994,0,0,0-.366-.3,4.1,4.1,0,0,0-5.637,1.375C32.373,63.606,32.536,66.055,34.586,67.021Z"/><path class="ae997c70-27e8-456d-97d5-de507de1cf29" d="M38.125,62.044a3.607,3.607,0,0,1,.435.365c.122.109.218.215.323.322.2.216.392.429.562.65a12.612,12.612,0,0,1,.937,1.345,16.178,16.178,0,0,1,1.341,2.824,19.414,19.414,0,0,1,.788,2.908,24.517,24.517,0,0,1,.358,2.912.5.5,0,0,1-.976.207l-.005-.016a22.889,22.889,0,0,0-1.066-2.544,17.08,17.08,0,0,0-1.373-2.3,13.168,13.168,0,0,0-1.685-1.926,8.938,8.938,0,0,0-.936-.763,5.575,5.575,0,0,0-.475-.306c-.076-.041-.157-.091-.226-.12s-.173-.085-.139-.045a2.057,2.057,0,0,1,2.137-3.515Z"/><path class="b8393eca-2c91-4362-9ddd-32e580cc5e7b" d="M10.637,30.894l-1.771.093a12.7,12.7,0,0,0-2.6.409l-1.462.388A1.888,1.888,0,0,1,2.4,30.628L2.246,30.2a.72.72,0,1,0-1.358.477l1.688,4.8,1.688,4.8a.72.72,0,0,0,1.359-.478l-.15-.424a1.888,1.888,0,0,1,1.157-2.41l.266-.1a7.171,7.171,0,0,1,2.57-.477h1.171a10.324,10.324,0,0,1,0-5.5Z"/><path class="b8393eca-2c91-4362-9ddd-32e580cc5e7b" d="M16.053,23.721a8.024,8.024,0,0,0-3.841-1.927,8.424,8.424,0,0,0-1.52-.14,12.1,12.1,0,0,0-3.664.327,20.38,20.38,0,0,0-2.822,1.453A1.894,1.894,0,0,1,1.569,23l-.262-.365a.72.72,0,1,0-1.171.838l1.362,1.9A4.891,4.891,0,0,0,4.967,27.4a9.738,9.738,0,0,0,2.945-.08c1.7-.177,2.649-.174,3.949.739A13.854,13.854,0,0,1,16.053,23.721Z"/><path class="b8393eca-2c91-4362-9ddd-32e580cc5e7b" d="M11.861,39.227a21.216,21.216,0,0,1-5.21,2.51A4.968,4.968,0,0,0,3.33,47.9L4,50.141a.72.72,0,0,0,1.379-.413L5.252,49.3A1.9,1.9,0,0,1,6.52,46.944h0a11.261,11.261,0,0,1,4.048-1.3l.124-.015a8.424,8.424,0,0,0,1.52-.14,8.015,8.015,0,0,0,3.841-1.927A13.833,13.833,0,0,1,11.861,39.227Z"/><path class="b8393eca-2c91-4362-9ddd-32e580cc5e7b" d="M42.255,30.894l1.771.093a12.7,12.7,0,0,1,2.6.409l1.461.388a1.888,1.888,0,0,0,2.41-1.156l.15-.424a.72.72,0,1,1,1.358.477l-1.688,4.8-1.689,4.8a.72.72,0,0,1-1.358-.478l.149-.424a1.888,1.888,0,0,0-1.156-2.41l-.266-.1a7.176,7.176,0,0,0-2.571-.477H42.255a10.3,10.3,0,0,0,0-5.5Z"/><path class="b8393eca-2c91-4362-9ddd-32e580cc5e7b" d="M36.84,23.721a8.024,8.024,0,0,1,3.841-1.927,8.416,8.416,0,0,1,1.52-.14,12.091,12.091,0,0,1,3.663.327,20.406,20.406,0,0,1,2.823,1.453A1.894,1.894,0,0,0,51.324,23l.262-.365a.72.72,0,1,1,1.171.838l-1.362,1.9a4.893,4.893,0,0,1-3.469,2.03,9.737,9.737,0,0,1-2.945-.08c-1.7-.177-2.649-.174-3.949.739A13.854,13.854,0,0,0,36.84,23.721Z"/><path class="b8393eca-2c91-4362-9ddd-32e580cc5e7b" d="M41.032,39.227a21.216,21.216,0,0,0,5.21,2.51,4.968,4.968,0,0,1,3.32,6.163l-.671,2.241a.72.72,0,0,1-1.38-.413l.13-.431a1.9,1.9,0,0,0-1.269-2.353h0a11.25,11.25,0,0,0-4.047-1.3l-.124-.015a8.416,8.416,0,0,1-1.52-.14,8.015,8.015,0,0,1-3.841-1.927A13.833,13.833,0,0,0,41.032,39.227Z"/><path class="ae997c70-27e8-456d-97d5-de507de1cf29" d="M37.506,63.494c-.18,2.18-.49,4.33-.86,6.46a20.2,20.2,0,0,1-2.08,6.19,2.356,2.356,0,0,1-.68.78c-.88.6-1.93.1-2.41-1.11a2,2,0,0,1-.1-.26l-.07-.23a13.337,13.337,0,0,1-.36-1.45,23.612,23.612,0,0,1-.38-4.62,2.316,2.316,0,0,0-.83-1.89c-1.03-1.15,1.1-2.48,1.3-4.03.25-1.98.56-3.98.69-6a25.045,25.045,0,0,0-.21-6,2.21,2.21,0,0,1,.06-1.08,1.2,1.2,0,0,1,.84-.92.786.786,0,0,1,.6.13l.77.52,1.1.74a5.116,5.116,0,0,1,1.39,1.4,5.328,5.328,0,0,1,.78,1.54,17.153,17.153,0,0,1,.5,3.25A32.88,32.88,0,0,1,37.506,63.494Z"/><path class="b236b9a1-61bc-4587-9bab-10078e50da29" d="M35.3,62.274c-.18,2.18-.49,4.33-.86,6.46a20.2,20.2,0,0,1-2.08,6.19,2.356,2.356,0,0,1-.68.78,1.983,1.983,0,0,1-.2.11,2,2,0,0,1-.1-.26l-.07-.23a13.337,13.337,0,0,1-.36-1.45,23.612,23.612,0,0,1-.38-4.62,2.316,2.316,0,0,0-.83-1.89c-1.03-1.15,1.1-2.48,1.3-4.03.25-1.98.56-3.98.69-6a25.045,25.045,0,0,0-.21-6,2.21,2.21,0,0,1,.06-1.08,1.2,1.2,0,0,1,.84-.92l.26.17a5.116,5.116,0,0,1,1.39,1.4,5.328,5.328,0,0,1,.78,1.54,17.153,17.153,0,0,1,.5,3.25A32.88,32.88,0,0,1,35.3,62.274Z"/><path class="ae997c70-27e8-456d-97d5-de507de1cf29" d="M23.416,67.364a2.3,2.3,0,0,0-.82,1.89,20.43,20.43,0,0,1-.74,6.07l-.08.23c-.43,1.4-1.56,2.01-2.51,1.37a2.329,2.329,0,0,1-.66-.76c0-.01-.01-.01-.01-.02a15.223,15.223,0,0,1-.97-2.1,24,24,0,0,1-1.11-4.09c-.37-2.13-.68-4.28-.87-6.46a32.88,32.88,0,0,1-.04-6.58,17.153,17.153,0,0,1,.5-3.25,5.555,5.555,0,0,1,.77-1.54.87.87,0,0,1,.09-.11,5.029,5.029,0,0,1,1.31-1.29l.11-.07a30.158,30.158,0,0,0,.05,3.68c.12,2.02.44,4.02.69,6,.2,1.55,2.33,2.88,1.29,4.03a.7.7,0,0,0-.08.1,1.669,1.669,0,0,0-.22.28,4.609,4.609,0,0,0,2.17.82,3.865,3.865,0,0,0,.69.05c.11,0,.21-.01.32-.02C23.686,66.224,23.916,66.814,23.416,67.364Z"/><path class="b236b9a1-61bc-4587-9bab-10078e50da29" d="M22.286,65.564a2.317,2.317,0,0,0-.4-.98c-.11.01-.21.02-.32.02a5.323,5.323,0,0,1-1.23-.14,4.419,4.419,0,0,1-1.63-.73,2.9,2.9,0,0,1,.3-.38c1.04-1.15-1.09-2.48-1.29-4.03-.25-1.98-.57-3.98-.69-6-.03-.44-.05-.88-.06-1.31a.87.87,0,0,0-.09.11,5.555,5.555,0,0,0-.77,1.54,17.153,17.153,0,0,0-.5,3.25,32.88,32.88,0,0,0,.04,6.58c.19,2.18.5,4.33.87,6.46a24,24,0,0,0,1.11,4.09,15.223,15.223,0,0,0,.97,2.1c0,.01.01.01.01.02.73.03,1.44-.58,1.76-1.62l.08-.23a20.43,20.43,0,0,0,.74-6.07,2.3,2.3,0,0,1,.82-1.89A.985.985,0,0,0,22.286,65.564Zm-4.02-1.04a1.847,1.847,0,0,1,.28-.57A2.687,2.687,0,0,0,18.266,64.524Z"/><path class="b236b9a1-61bc-4587-9bab-10078e50da29" d="M12.038,56.2a7.782,7.782,0,0,1-.87-4.086,10.076,10.076,0,0,1,1.127-4.09,11.631,11.631,0,0,1,2.614-3.442,12.012,12.012,0,0,1,1.7-1.3,13.958,13.958,0,0,1,1.856-.944A2.832,2.832,0,0,1,21.433,47.1l-.415.344c-.364.3-.767.538-1.134.8-.335.294-.747.5-1.049.812a11.842,11.842,0,0,0-1.844,1.82,15.032,15.032,0,0,0-1.51,2.285c-.5.827-.93,1.818-1.459,2.788l-.141.256a1.048,1.048,0,0,1-1.843,0Z"/><path class="ae997c70-27e8-456d-97d5-de507de1cf29" d="M39.1,55.965C38.57,55,38.145,54,37.645,53.174a14.987,14.987,0,0,0-1.5-2.29A11.8,11.8,0,0,0,34.3,49.059c-.3-.311-.712-.52-1.046-.815-.366-.263-.769-.5-1.132-.8l-.411-.345a2.831,2.831,0,0,1,2.983-4.75,13.8,13.8,0,0,1,1.854.95,12.007,12.007,0,0,1,1.692,1.3,11.646,11.646,0,0,1,2.6,3.45,10.081,10.081,0,0,1,1.115,4.094,7.79,7.79,0,0,1-.882,4.083,1.048,1.048,0,0,1-1.844,0Z"/><path class="ae997c70-27e8-456d-97d5-de507de1cf29" d="M37.456,56.854a17.089,17.089,0,0,1-.53,4.34c-.05,3.86-2.29,5.51-4.26,6.1-.01,0-.03.01-.04.01a13.191,13.191,0,0,1-2.01.68,16.612,16.612,0,0,1-8.09,0,14.286,14.286,0,0,1-2.811-1.031l-1.458-1.238c-.055-.077-.109-.154-.161-.231v-.01c-.16-.24-.31-.48-.46-.74-.12-.2-.23-.41-.34-.62a13.159,13.159,0,0,1-.63-1.48c-.09-.22-.16-.44-.23-.67-.08-.25-.15-.51-.22-.77a17.55,17.55,0,0,1-.53-4.34c0-.35.01-.7.03-1.07.01-.22.02-.43.05-.66.01-.21.02-.42.05-.64a1.8,1.8,0,0,1,.02-.22c.03-.27.06-.54.1-.81.05-.4.12-.81.19-1.21.12-.68.26-1.37.42-2.06.04-.17.08-.35.13-.53.09-.38.2-.76.3-1.15.12-.41.24-.83.38-1.24,1.92-6.04,5.33-11.53,9.22-11.53a4.79,4.79,0,0,1,2.54.79c2.8,1.72,5.18,6.06,6.67,10.74.1.31.2.62.29.94.04.12.08.25.11.37l.3,1.14a.637.637,0,0,1,.02.07c.1.41.19.82.27,1.22.07.32.13.64.19.96.02.11.04.21.06.32q.1.57.18,1.14v.03c.05.38.1.76.13,1.13.01.09.02.18.03.26.03.31.05.62.06.92C37.446,56.134,37.456,56.5,37.456,56.854Z"/><path class="b236b9a1-61bc-4587-9bab-10078e50da29" d="M34.456,53.854c0,1.55.008,3.356-.142,4.726-.39,3.694-3.368,6.974-12.229,6.216-2.624-.224-5.2-1-5.856-3.554l-.013-.048a17.55,17.55,0,0,1-.53-4.34c0-7.97,4.87-21.12,10.89-21.12a4.79,4.79,0,0,1,2.54.79C32.316,41.014,34.456,48.574,34.456,53.854Z"/><path class="ae997c70-27e8-456d-97d5-de507de1cf29" d="M42.256,30.892h-.05A11.422,11.422,0,0,0,41,28.082c.01-.01.02-.01.04-.02a13.458,13.458,0,0,0-3.91-4.13c-.1-.08-.19-.14-.29-.21l-.01.01a17.13,17.13,0,0,0-3.38-1.75,1.336,1.336,0,0,0-.18-.07c-.34-.13-.68-.24-1.02-.35-.14-.04-.29-.09-.43-.13-.3-.08-.6-.16-.9-.23-.21-.05-.43-.09-.64-.13-.26-.05-.52-.1-.78-.14-.29-.05-.59-.08-.89-.11-.2-.02-.4-.05-.6-.07q-.765-.06-1.56-.06c-.53,0-1.04.02-1.56.06-.2.02-.4.05-.6.07-.3.03-.6.06-.89.11-.26.04-.52.09-.78.14-.21.04-.43.08-.64.13-.3.07-.6.15-.9.23-.14.04-.28.09-.43.13-.34.11-.68.22-1.02.35a1.336,1.336,0,0,0-.18.07,17.13,17.13,0,0,0-3.38,1.75l-.01-.01a13.874,13.874,0,0,0-4.2,4.34c.02.01.03.01.04.02a11.422,11.422,0,0,0-1.21,2.81h-.05a10.541,10.541,0,0,0-.37,2.75,10.428,10.428,0,0,0,.37,2.75h.05A11.1,11.1,0,0,0,11.9,39.2a.138.138,0,0,1-.04.03c.17.28.35.55.55.82a14.094,14.094,0,0,0,3.65,3.52c0-.01.01-.01.01-.02a16.726,16.726,0,0,0,3.39,1.76c.05.02.11.04.16.06.34.13.69.25,1.04.36l.41.12c.3.08.61.16.92.24l.61.12c.27.05.53.11.81.15s.56.07.84.1c.22.03.43.06.65.07.47.04.94.06,1.42.06.05,0,.09.01.13.01s.09-.01.13-.01c.48,0,.95-.02,1.42-.06.22-.01.44-.04.65-.07.29-.03.57-.06.84-.1s.54-.1.81-.15c.21-.04.41-.08.61-.12l.93-.24.39-.12q.54-.165,1.05-.36c.05-.02.11-.04.16-.06a16.726,16.726,0,0,0,3.39-1.76c0,.01.01.01.01.02a14.088,14.088,0,0,0,4.2-4.34A.138.138,0,0,1,41,39.2a11.1,11.1,0,0,0,1.21-2.81h.05a10.428,10.428,0,0,0,.37-2.75A10.541,10.541,0,0,0,42.256,30.892Z"/><path class="ae997c70-27e8-456d-97d5-de507de1cf29" d="M21.976,21.2c.212-.049.427-.091.643-.133C22.4,21.113,22.188,21.153,21.976,21.2Z"/><path class="ae997c70-27e8-456d-97d5-de507de1cf29" d="M31.814,21.436c.144.04.287.082.429.125C32.1,21.517,31.958,21.477,31.814,21.436Z"/><path class="ae997c70-27e8-456d-97d5-de507de1cf29" d="M20.65,21.561c.142-.043.285-.085.429-.125C20.935,21.477,20.792,21.517,20.65,21.561Z"/><path class="ae997c70-27e8-456d-97d5-de507de1cf29" d="M26.446,20.691c-.526,0-1.045.023-1.558.063.514-.04,1.032-.063,1.558-.063Z"/><path class="ae997c70-27e8-456d-97d5-de507de1cf29" d="M28.608,20.819c.3.032.6.064.891.109C29.206,20.883,28.907,20.852,28.608,20.819Z"/><path class="ae997c70-27e8-456d-97d5-de507de1cf29" d="M30.274,21.07c.216.042.431.084.643.133C30.705,21.153,30.49,21.113,30.274,21.07Z"/><path class="ae997c70-27e8-456d-97d5-de507de1cf29" d="M19.619,45.376l-.163-.062Z"/><path class="ae997c70-27e8-456d-97d5-de507de1cf29" d="M26.448,20.691c.525,0,1.044.023,1.556.063C27.492,20.714,26.973,20.691,26.448,20.691Z"/><path class="ae997c70-27e8-456d-97d5-de507de1cf29" d="M19.441,21.981c.064-.025.126-.05.19-.073Z"/><path class="ae997c70-27e8-456d-97d5-de507de1cf29" d="M29.49,46.362c-.277.042-.558.071-.839.1C28.932,46.433,29.213,46.4,29.49,46.362Z"/><path class="ae997c70-27e8-456d-97d5-de507de1cf29" d="M32.231,45.731c-.133.041-.266.079-.4.117C31.965,45.81,32.1,45.772,32.231,45.731Z"/><path class="ae997c70-27e8-456d-97d5-de507de1cf29" d="M21.063,45.848q-.2-.057-.4-.117C20.794,45.772,20.929,45.81,21.063,45.848Z"/><path class="ae997c70-27e8-456d-97d5-de507de1cf29" d="M33.435,45.314l-.159.062Z"/><path class="ae997c70-27e8-456d-97d5-de507de1cf29" d="M30.907,46.088c-.2.046-.405.085-.608.125C30.5,46.173,30.707,46.134,30.907,46.088Z"/><path class="ae997c70-27e8-456d-97d5-de507de1cf29" d="M22.6,46.214c-.205-.04-.409-.08-.611-.126C22.186,46.134,22.392,46.173,22.6,46.214Z"/><path class="ae997c70-27e8-456d-97d5-de507de1cf29" d="M28,46.535q-.7.054-1.421.058Q27.293,46.589,28,46.535Z"/><path class="ae997c70-27e8-456d-97d5-de507de1cf29" d="M24.244,46.464c-.282-.031-.564-.06-.841-.1C23.68,46.4,23.962,46.433,24.244,46.464Z"/><path class="ae997c70-27e8-456d-97d5-de507de1cf29" d="M26.32,46.593q-.72,0-1.423-.058Q25.6,46.589,26.32,46.593Z"/><path class="ae997c70-27e8-456d-97d5-de507de1cf29" d="M23.394,20.928c.294-.045.593-.077.892-.109C23.987,20.852,23.688,20.883,23.394,20.928Z"/><path class="ae997c70-27e8-456d-97d5-de507de1cf29" d="M33.262,21.908c.064.023.126.048.189.073Z"/><path class="ae997c70-27e8-456d-97d5-de507de1cf29" d="M23.4,46.361c-.273-.041-.54-.094-.807-.147C22.864,46.266,23.13,46.32,23.4,46.361Z"/><path class="ae997c70-27e8-456d-97d5-de507de1cf29" d="M41,28.083A11.23,11.23,0,0,1,42.2,30.894h.053a11.253,11.253,0,0,0-1.224-2.833C41.021,28.069,41.008,28.075,41,28.083Z"/><path class="ae997c70-27e8-456d-97d5-de507de1cf29" d="M24.9,46.535c-.221-.017-.436-.047-.653-.071C24.462,46.488,24.676,46.519,24.9,46.535Z"/><path class="ae997c70-27e8-456d-97d5-de507de1cf29" d="M32.243,21.561c.345.108.686.221,1.019.347Q32.761,21.721,32.243,21.561Z"/><path class="ae997c70-27e8-456d-97d5-de507de1cf29" d="M21.985,46.088c-.312-.072-.619-.153-.922-.24C21.367,45.934,21.673,46.016,21.985,46.088Z"/><path class="ae997c70-27e8-456d-97d5-de507de1cf29" d="M31.832,45.848c-.3.087-.612.168-.925.24C31.22,46.016,31.526,45.934,31.832,45.848Z"/><path class="ae997c70-27e8-456d-97d5-de507de1cf29" d="M30.3,46.213c-.268.053-.536.106-.809.149C29.763,46.32,30.03,46.266,30.3,46.213Z"/><path class="ae997c70-27e8-456d-97d5-de507de1cf29" d="M28.651,46.464c-.218.024-.434.054-.655.071C28.217,46.519,28.432,46.488,28.651,46.464Z"/><path class="ae997c70-27e8-456d-97d5-de507de1cf29" d="M41,39.206c.012.008.025.013.036.021a11.238,11.238,0,0,0,1.224-2.833H42.2A11.224,11.224,0,0,1,41,39.206Z"/><path class="ae997c70-27e8-456d-97d5-de507de1cf29" d="M33.276,45.376c-.342.128-.691.245-1.045.355Q32.762,45.567,33.276,45.376Z"/><path class="ae997c70-27e8-456d-97d5-de507de1cf29" d="M26.32,46.593c.042,0,.084,0,.127,0s.085,0,.128,0c-.043,0-.085,0-.129,0S26.362,46.593,26.32,46.593Z"/><path class="ae997c70-27e8-456d-97d5-de507de1cf29" d="M33.435,45.314a17.061,17.061,0,0,0,3.405-1.747l-.017-.013A17.038,17.038,0,0,1,33.435,45.314Z"/><path class="ae997c70-27e8-456d-97d5-de507de1cf29" d="M28,20.754c.2.015.4.044.6.065C28.406,20.8,28.208,20.769,28,20.754Z"/><path class="ae997c70-27e8-456d-97d5-de507de1cf29" d="M19.441,21.981a17.137,17.137,0,0,0-3.388,1.74l.016.013A17.123,17.123,0,0,1,19.441,21.981Z"/><path class="ae997c70-27e8-456d-97d5-de507de1cf29" d="M20.661,45.731c-.353-.11-.7-.226-1.042-.355Q20.131,45.568,20.661,45.731Z"/><path class="ae997c70-27e8-456d-97d5-de507de1cf29" d="M30.917,21.2c.3.07.6.149.9.233C31.518,21.352,31.221,21.272,30.917,21.2Z"/><path class="ae997c70-27e8-456d-97d5-de507de1cf29" d="M24.286,20.819c.2-.021.4-.05.6-.065C24.685,20.769,24.487,20.8,24.286,20.819Z"/><path class="ae997c70-27e8-456d-97d5-de507de1cf29" d="M29.5,20.928c.262.041.518.092.775.142C30.017,21.02,29.761,20.968,29.5,20.928Z"/><path class="ae997c70-27e8-456d-97d5-de507de1cf29" d="M36.84,23.721a17.065,17.065,0,0,0-3.389-1.74,17.05,17.05,0,0,1,3.373,1.753Z"/><polygon class="ae997c70-27e8-456d-97d5-de507de1cf29" points="26.447 20.691 26.446 20.691 26.448 20.691 26.447 20.691"/><path class="ae997c70-27e8-456d-97d5-de507de1cf29" d="M19.631,21.908c.333-.126.674-.24,1.019-.347Q20.131,21.722,19.631,21.908Z"/><path class="ae997c70-27e8-456d-97d5-de507de1cf29" d="M11.9,28.083c-.011-.008-.024-.014-.035-.022a11.253,11.253,0,0,0-1.224,2.833h.052A11.269,11.269,0,0,1,11.9,28.083Z"/><path class="ae997c70-27e8-456d-97d5-de507de1cf29" d="M10.69,36.394h-.053a11.238,11.238,0,0,0,1.224,2.833c.011-.008.024-.013.036-.021A11.187,11.187,0,0,1,10.69,36.394Z"/><path class="ae997c70-27e8-456d-97d5-de507de1cf29" d="M16.053,43.567a17.124,17.124,0,0,0,3.4,1.747,17.049,17.049,0,0,1-3.386-1.76Z"/><path class="ae997c70-27e8-456d-97d5-de507de1cf29" d="M21.079,21.436c.295-.084.593-.163.9-.233C21.672,21.273,21.375,21.352,21.079,21.436Z"/><path class="ae997c70-27e8-456d-97d5-de507de1cf29" d="M22.619,21.07c.257-.05.513-.1.775-.142C23.132,20.968,22.876,21.02,22.619,21.07Z"/><path class="b236b9a1-61bc-4587-9bab-10078e50da29" d="M38.876,27.582h-.05a10.758,10.758,0,0,0-1.21-2.81.138.138,0,0,0,.04-.03c-.16-.27-.34-.54-.53-.81-.1-.08-.19-.14-.29-.21l-.01.01a17.13,17.13,0,0,0-3.38-1.75,1.336,1.336,0,0,0-.18-.07c-.34-.13-.68-.24-1.02-.35-.14-.04-.29-.09-.43-.13-.3-.08-.6-.16-.9-.23-.21-.05-.43-.09-.64-.13-.26-.05-.52-.1-.78-.14-.29-.05-.59-.08-.89-.11-.2-.02-.4-.05-.6-.07q-.765-.06-1.56-.06c-.53,0-1.04.02-1.56.06-.2.02-.4.05-.6.07-.3.03-.6.06-.89.11-.26.04-.52.09-.78.14-.21.04-.43.08-.64.13-.3.07-.6.15-.9.23-.14.04-.28.09-.43.13-.34.11-.68.22-1.02.35a1.336,1.336,0,0,0-.18.07,17.13,17.13,0,0,0-3.38,1.75l-.01-.01a13.874,13.874,0,0,0-4.2,4.34c.02.01.03.01.04.02a11.422,11.422,0,0,0-1.21,2.81h-.05a10.541,10.541,0,0,0-.37,2.75,10.428,10.428,0,0,0,.37,2.75h.05A11.1,11.1,0,0,0,11.9,39.2a.138.138,0,0,1-.04.03c.17.28.35.55.55.82a2.343,2.343,0,0,0,.27.2c.01,0,.01-.01.02-.01A17.421,17.421,0,0,0,16.076,42c.06.02.11.04.17.06.34.13.69.24,1.04.35l.4.12c.3.09.61.17.92.24.2.05.41.09.61.13.27.05.54.1.81.14s.56.08.84.11c.22.02.43.05.65.07.47.03.95.05,1.43.06h.25c.48-.01.96-.03,1.42-.06.22-.02.44-.05.66-.07.28-.03.56-.06.84-.11s.54-.09.81-.14c.2-.04.4-.08.61-.13.31-.07.62-.15.92-.24l.4-.12c.35-.11.7-.22,1.04-.35.06-.02.11-.04.16-.06a17.508,17.508,0,0,0,3.39-1.76c.01,0,.01.01.02.01a13.73,13.73,0,0,0,4.19-4.34c-.01-.01-.02-.01-.04-.02a11.055,11.055,0,0,0,1.21-2.81h.05a10.549,10.549,0,0,0,.38-2.75A10.432,10.432,0,0,0,38.876,27.582Z"/><path class="fbe34c79-fb6b-4d03-9c6c-c39a5872f7d7" d="M15.066,33.3a2.349,2.349,0,0,0,4.7,0"/><path class="fbe34c79-fb6b-4d03-9c6c-c39a5872f7d7" d="M33.131,33.3a2.349,2.349,0,0,0,4.7,0"/><path class="e452ab6b-62c0-4c5d-8140-8192c206af99" d="M22.352,37.276a6.489,6.489,0,0,1,3.873-.873,6.462,6.462,0,0,1,3.873.873"/><path class="bb976cc2-1a9e-437c-a998-88cbd5175ee8" d="M18.04,38.386a.625.625,0,0,1-1.25,0,4.538,4.538,0,0,1,.625-1.546A4.5,4.5,0,0,1,18.04,38.386Z"/><path class="bb976cc2-1a9e-437c-a998-88cbd5175ee8" d="M28.539,17.035a.6.6,0,0,1-.534-.865l1.2-2.391a.6.6,0,1,1,1.069.535L29.074,16.7a.6.6,0,0,1-.535.331Z"/><path class="bb976cc2-1a9e-437c-a998-88cbd5175ee8" d="M33.918,17.035a.6.6,0,0,1-.534-.865l1.2-2.391a.6.6,0,0,1,1.07.535l-1.2,2.39a.6.6,0,0,1-.535.331Z"/><path class="bb976cc2-1a9e-437c-a998-88cbd5175ee8" d="M23.16,17.035a.6.6,0,0,1-.534-.865l1.2-2.391a.6.6,0,0,1,1.069.535L23.7,16.7a.6.6,0,0,1-.535.331Z"/><path class="bb976cc2-1a9e-437c-a998-88cbd5175ee8" d="M17.78,17.035a.6.6,0,0,1-.534-.865l1.2-2.391a.6.6,0,0,1,1.069.535l-1.2,2.39a.6.6,0,0,1-.536.331Z"/><path class="bb976cc2-1a9e-437c-a998-88cbd5175ee8" d="M24.953,19.127a.6.6,0,0,1-.534-.865l1.2-2.391a.6.6,0,0,1,1.069.535l-1.2,2.39a.6.6,0,0,1-.535.331Z"/><path class="bb976cc2-1a9e-437c-a998-88cbd5175ee8" d="M30.332,19.127a.6.6,0,0,1-.534-.865l1.2-2.391a.6.6,0,1,1,1.069.535L30.867,18.8a.6.6,0,0,1-.535.331Z"/><path class="bb976cc2-1a9e-437c-a998-88cbd5175ee8" d="M19.574,19.127a.6.6,0,0,1-.534-.865l1.2-2.391a.6.6,0,0,1,1.069.535L20.109,18.8a.6.6,0,0,1-.535.331Z"/><path class="a2a1d4dc-6a9c-4347-895e-f226386ef320" d="M36.011,9.3a3.292,3.292,0,0,1-3.288,3.288H21.068a4.185,4.185,0,0,1-.893-8.273,4.483,4.483,0,0,1,8.537-1.739,3.59,3.59,0,0,1,4.609,3.491A3.294,3.294,0,0,1,36.011,9.3Z"/><path class="b8fdec86-4044-46ee-9395-4b48de36bccd" d="M28.638,2.43a3.593,3.593,0,0,0-1.121.148A4.487,4.487,0,0,0,24.059.04a4.476,4.476,0,0,1,4.579,2.39Z"/><path class="b8fdec86-4044-46ee-9395-4b48de36bccd" d="M36.011,9.3a3.292,3.292,0,0,1-3.288,3.288h-1.2a3.288,3.288,0,0,0,.6-6.521,3.591,3.591,0,0,0-2.986-3.59,3.59,3.59,0,0,1,4.182,3.59A3.294,3.294,0,0,1,36.011,9.3Z"/></g></g></svg>